<svg width="88" height="30" viewBox="0 0 88 30" fill="none" xmlns="http://www.w3.org/2000/svg">
<path d="M20.3497 2.26465V27.7355M11.0295 7.53444V22.4657M1.72656 12.3657V17.6344M29.7326 7.53444V22.4657M39.4375 12.3657V17.6344M66.9356 2.26465V27.7355M57.6154 7.53444V22.4657M48.3125 12.3657V17.6344M76.3185 7.53444V22.4657M86.0234 12.3657V17.6344" stroke="black" stroke-width="3" stroke-linecap="round" stroke-linejoin="round"/>
<path d="M20.3497 2.26465V27.7355M11.0295 7.53444V22.4657M1.72656 12.3657V17.6344M29.7326 7.53444V22.4657M39.4375 12.3657V17.6344M66.9356 2.26465V27.7355M57.6154 7.53444V22.4657M48.3125 12.3657V17.6344M76.3185 7.53444V22.4657M86.0234 12.3657V17.6344" stroke="black" stroke-opacity="0.2" stroke-width="3" stroke-linecap="round" stroke-linejoin="round"/>
<path d="M20.3497 2.26465V27.7355M11.0295 7.53444V22.4657M1.72656 12.3657V17.6344M29.7326 7.53444V22.4657M39.4375 12.3657V17.6344M66.9356 2.26465V27.7355M57.6154 7.53444V22.4657M48.3125 12.3657V17.6344M76.3185 7.53444V22.4657M86.0234 12.3657V17.6344" stroke="black" stroke-opacity="0.2" stroke-width="3" stroke-linecap="round" stroke-linejoin="round"/>
</svg>
