<svg width="24" height="24" viewBox="0 0 24 24" fill="none" xmlns="http://www.w3.org/2000/svg">
<path d="M20.6432 24H3.35683C2.46654 24 1.61272 23.6463 0.983193 23.0168C0.353665 22.3873 0 21.5335 0 20.6432V3.35683C0 2.46654 0.353665 1.61272 0.983193 0.983193C1.61272 0.353665 2.46654 0 3.35683 0H20.6432C21.5335 0 22.3873 0.353665 23.0168 0.983193C23.6463 1.61272 24 2.46654 24 3.35683V20.6432C24 21.5335 23.6463 22.3873 23.0168 23.0168C22.3873 23.6463 21.5335 24 20.6432 24ZM3.35683 1.34273C2.82266 1.34273 2.31037 1.55493 1.93265 1.93265C1.55493 2.31037 1.34273 2.82266 1.34273 3.35683V20.6432C1.34273 21.1773 1.55493 21.6896 1.93265 22.0674C2.31037 22.4451 2.82266 22.6573 3.35683 22.6573H20.6432C21.1773 22.6573 21.6896 22.4451 22.0674 22.0674C22.4451 21.6896 22.6573 21.1773 22.6573 20.6432V3.35683C22.6573 2.82266 22.4451 2.31037 22.0674 1.93265C21.6896 1.55493 21.1773 1.34273 20.6432 1.34273H3.35683Z" fill="white"/>
<path d="M11.9999 18.1688C10.7798 18.1675 9.58757 17.8045 8.5738 17.1256C7.56003 16.4468 6.77027 15.4827 6.30436 14.3551C5.83844 13.2275 5.7173 11.9871 5.95623 10.7907C6.19516 9.59425 6.78344 8.49551 7.64671 7.63337C8.50998 6.77122 9.60948 6.18437 10.8062 5.947C12.003 5.70963 13.2432 5.8324 14.3702 6.29978C15.4972 6.76717 16.4603 7.55819 17.1378 8.57284C17.8153 9.5875 18.1767 10.7802 18.1765 12.0003C18.1743 13.637 17.5226 15.206 16.3645 16.3626C15.2064 17.5192 13.6366 18.1688 11.9999 18.1688ZM11.9999 7.16646C11.0458 7.16779 10.1134 7.45186 9.32062 7.98278C8.52784 8.5137 7.91017 9.26766 7.54565 10.1494C7.18113 11.0312 7.0861 12.0012 7.27257 12.937C7.45904 13.8727 7.91864 14.7322 8.59332 15.4069C9.26801 16.0816 10.1275 16.5412 11.0632 16.7276C11.999 16.9141 12.969 16.8191 13.8508 16.4545C14.7325 16.09 15.4865 15.4724 16.0174 14.6796C16.5483 13.8868 16.8324 12.9544 16.8337 12.0003C16.8337 10.7183 16.3245 9.48878 15.4179 8.58226C14.5114 7.67574 13.2819 7.16646 11.9999 7.16646Z" fill="white"/>
<path d="M18.9825 6.50113C19.7797 6.50113 20.4259 5.85488 20.4259 5.05769C20.4259 4.26051 19.7797 3.61426 18.9825 3.61426C18.1853 3.61426 17.5391 4.26051 17.5391 5.05769C17.5391 5.85488 18.1853 6.50113 18.9825 6.50113Z" fill="white"/>
</svg>
