<svg width="24" height="24" viewBox="0 0 24 24" fill="none" xmlns="http://www.w3.org/2000/svg">
<path d="M23.2178 6.33816C21.7172 6.33636 20.2785 5.73942 19.2173 4.67829C18.1562 3.61715 17.5592 2.17845 17.5575 0.67778C17.5575 0.497633 17.4859 0.324865 17.3585 0.197481C17.2311 0.0700982 17.0584 -0.00146484 16.8782 -0.00146484H12.3499C12.1698 -0.00146484 11.997 0.0700982 11.8696 0.197481C11.7422 0.324865 11.6707 0.497633 11.6707 0.67778V15.6212C11.6704 16.0668 11.5505 16.5042 11.3236 16.8878C11.0967 17.2713 10.7711 17.5869 10.3807 17.8018C9.99021 18.0166 9.54928 18.1227 9.10386 18.109C8.65843 18.0954 8.22483 17.9625 7.84826 17.7242C7.47169 17.4859 7.16597 17.1509 6.96296 16.7542C6.75995 16.3575 6.66711 15.9136 6.6941 15.4688C6.7211 15.024 6.86695 14.5945 7.11644 14.2253C7.36593 13.856 7.70993 13.5605 8.11255 13.3695C8.22869 13.3144 8.32683 13.2275 8.39557 13.1189C8.4643 13.0103 8.50081 12.8844 8.50085 12.7559V7.92306C8.50075 7.82434 8.47913 7.72683 8.4375 7.63731C8.39587 7.5478 8.33522 7.46843 8.25979 7.40475C8.18436 7.34106 8.09595 7.29458 8.00072 7.26855C7.90549 7.24252 7.80574 7.23755 7.70839 7.25401C3.76877 7.95476 0.802734 11.5514 0.802734 15.6212C0.802734 17.843 1.68535 19.9738 3.25641 21.5449C4.82747 23.1159 6.95828 23.9985 9.18009 23.9985C11.4019 23.9985 13.5327 23.1159 15.1038 21.5449C16.6748 19.9738 17.5575 17.843 17.5575 15.6212V10.7453C19.2845 11.7197 21.2348 12.2295 23.2178 12.225C23.398 12.225 23.5707 12.1534 23.6981 12.026C23.8255 11.8986 23.8971 11.7259 23.8971 11.5457V7.0174C23.8971 6.83726 23.8255 6.66449 23.6981 6.5371C23.5707 6.40972 23.398 6.33816 23.2178 6.33816ZM22.5386 10.8438C20.6409 10.7226 18.8161 10.0676 17.2744 8.95438C17.1728 8.8814 17.053 8.8379 16.9282 8.82869C16.8035 8.81947 16.6786 8.8449 16.5673 8.90215C16.4561 8.95941 16.3628 9.04628 16.2978 9.15318C16.2328 9.26008 16.1986 9.38286 16.199 9.50797V15.6212C16.199 17.4827 15.4595 19.268 14.1432 20.5843C12.8269 21.9006 11.0416 22.64 9.18009 22.64C7.31857 22.64 5.5333 21.9006 4.217 20.5843C2.90071 19.268 2.16122 17.4827 2.16122 15.6212C2.16122 12.4831 4.25217 9.68005 7.14236 8.78571V12.3551C6.57393 12.7099 6.10794 13.2068 5.79049 13.7969C5.47303 14.3869 5.3151 15.0496 5.33231 15.7194C5.34952 16.3892 5.54128 17.0429 5.88862 17.6159C6.23596 18.1889 6.72685 18.6612 7.31275 18.9863C7.89864 19.3114 8.55924 19.4778 9.22922 19.4693C9.89919 19.4607 10.5553 19.2774 11.1327 18.9375C11.7101 18.5976 12.1888 18.1129 12.5214 17.5312C12.854 16.9496 13.029 16.2912 13.0291 15.6212V1.35703H16.2318C16.3911 2.97559 17.1067 4.48883 18.2568 5.63885C19.4068 6.78888 20.92 7.50452 22.5386 7.66382V10.8438Z" fill="white"/>
</svg>
