<svg width="27" height="24" viewBox="0 0 27 24" fill="none" xmlns="http://www.w3.org/2000/svg">
<path d="M25.7408 0.447449C25.4754 0.222767 25.1554 0.0756248 24.8147 0.0216222C24.474 -0.0323804 24.1254 0.00876944 23.8058 0.140709L1.75102 9.23353C1.39462 9.38311 1.0912 9.63984 0.881032 9.96966C0.670862 10.2995 0.563886 10.6868 0.574303 11.0801C0.58472 11.4735 0.712039 11.8543 0.939357 12.1721C1.16668 12.4898 1.48324 12.7294 1.84703 12.8591L6.60585 14.5462L9.18467 23.2531C9.18959 23.2707 9.20559 23.282 9.21298 23.2983C9.23955 23.3678 9.27835 23.4317 9.32746 23.4869C9.40207 23.572 9.49839 23.6342 9.60565 23.6667C9.61796 23.6717 9.62657 23.683 9.63888 23.6855H9.64627L9.64996 23.6868C9.74519 23.7077 9.84415 23.7025 9.93677 23.6717C9.94662 23.6692 9.95647 23.6692 9.96754 23.6654C10.0565 23.6335 10.137 23.581 10.2027 23.512C10.21 23.5032 10.2223 23.502 10.2297 23.4944L13.9386 19.3132L19.351 23.5937C19.6797 23.8565 20.0846 23.9985 20.5019 23.9985C21.4054 23.9985 22.1846 23.3524 22.3705 22.451L26.3858 2.31429C26.4539 1.97244 26.4299 1.61813 26.3163 1.28913C26.2027 0.960133 26.0038 0.668796 25.7408 0.446192M10.5301 16.1993L9.65981 20.5201L7.84417 14.3878L16.8485 9.5981L10.6975 15.8812C10.6123 15.9682 10.5541 16.0788 10.5301 16.1993ZM21.1642 22.1983C21.1411 22.3123 21.0896 22.4183 21.0148 22.5062C20.94 22.594 20.8444 22.6607 20.737 22.6999C20.6323 22.7411 20.5189 22.7537 20.408 22.7365C20.297 22.7193 20.1924 22.6729 20.1043 22.6019L14.2414 17.9643C14.1188 17.8677 13.9651 17.8218 13.8109 17.8358C13.6566 17.8497 13.5132 17.9226 13.4093 18.0397L10.828 20.945L11.697 16.6368L20.5462 7.59801C20.6499 7.49182 20.7129 7.3513 20.724 7.20181C20.7351 7.05232 20.6936 6.90369 20.6068 6.78276C20.52 6.66183 20.3938 6.57655 20.2509 6.54232C20.1079 6.50808 19.9577 6.52715 19.8274 6.59607L7.07114 13.3821L2.24955 11.6699C2.12171 11.6267 2.01021 11.544 1.93056 11.4331C1.85092 11.3223 1.80709 11.1888 1.80518 11.0513C1.79904 10.9126 1.83533 10.7754 1.909 10.6588C1.98267 10.5421 2.09008 10.4517 2.21631 10.4002L24.2674 1.30733C24.3804 1.25829 24.5045 1.24244 24.6259 1.26154C24.7472 1.28064 24.8609 1.33394 24.9542 1.41544C25.047 1.49211 25.1171 1.59361 25.1567 1.7086C25.1962 1.82359 25.2037 1.94755 25.1783 2.06663L21.1642 22.1983Z" fill="white"/>
</svg>
