<svg width="70" height="70" viewBox="0 0 70 70" fill="none" xmlns="http://www.w3.org/2000/svg">
<circle cx="35" cy="35" r="35" fill="#E0DAD1"/>
<path d="M25.491 32.3413H44.5329M25.491 28.0299H44.5329M25.491 36.6527H37.3473M46.8683 23H23.1557C22.584 23 22.0357 23.2271 21.6314 23.6314C21.2271 24.0357 21 24.584 21 25.1557V39.5269C21 40.0987 21.2271 40.647 21.6314 41.0512C22.0357 41.4555 22.584 41.6826 23.1557 41.6826H24.3341V47L30.2695 41.6826H46.8683C47.44 41.6826 47.9883 41.4555 48.3926 41.0512C48.7968 40.647 49.024 40.0987 49.024 39.5269V25.1557C49.024 24.584 48.7968 24.0357 48.3926 23.6314C47.9883 23.2271 47.44 23 46.8683 23Z" stroke="black" stroke-linecap="round" stroke-linejoin="round"/>
<path d="M25.491 32.3413H44.5329M25.491 28.0299H44.5329M25.491 36.6527H37.3473M46.8683 23H23.1557C22.584 23 22.0357 23.2271 21.6314 23.6314C21.2271 24.0357 21 24.584 21 25.1557V39.5269C21 40.0987 21.2271 40.647 21.6314 41.0512C22.0357 41.4555 22.584 41.6826 23.1557 41.6826H24.3341V47L30.2695 41.6826H46.8683C47.44 41.6826 47.9883 41.4555 48.3926 41.0512C48.7968 40.647 49.024 40.0987 49.024 39.5269V25.1557C49.024 24.584 48.7968 24.0357 48.3926 23.6314C47.9883 23.2271 47.44 23 46.8683 23Z" stroke="black" stroke-opacity="0.2" stroke-linecap="round" stroke-linejoin="round"/>
<path d="M25.491 32.3413H44.5329M25.491 28.0299H44.5329M25.491 36.6527H37.3473M46.8683 23H23.1557C22.584 23 22.0357 23.2271 21.6314 23.6314C21.2271 24.0357 21 24.584 21 25.1557V39.5269C21 40.0987 21.2271 40.647 21.6314 41.0512C22.0357 41.4555 22.584 41.6826 23.1557 41.6826H24.3341V47L30.2695 41.6826H46.8683C47.44 41.6826 47.9883 41.4555 48.3926 41.0512C48.7968 40.647 49.024 40.0987 49.024 39.5269V25.1557C49.024 24.584 48.7968 24.0357 48.3926 23.6314C47.9883 23.2271 47.44 23 46.8683 23Z" stroke="black" stroke-opacity="0.2" stroke-linecap="round" stroke-linejoin="round"/>
</svg>
