<svg width="48" height="48" viewBox="0 0 48 48" fill="none" xmlns="http://www.w3.org/2000/svg">
<rect width="48" height="48" rx="24" fill="#E0DAD1"/>
<path d="M34.9711 28.4446L29.1864 25.8523C28.9243 25.74 28.6383 25.6948 28.3543 25.7209C28.0704 25.747 27.7974 25.8435 27.5602 26.0017C27.5361 26.0171 27.5132 26.0343 27.4916 26.0531L24.4682 28.6246C24.4369 28.6417 24.4019 28.6513 24.3662 28.6526C24.3305 28.6538 24.295 28.6468 24.2625 28.632C22.3192 27.694 20.306 25.6931 19.3644 23.7767C19.3487 23.7447 19.3405 23.7095 19.3405 23.6738C19.3405 23.6382 19.3487 23.603 19.3644 23.571L21.9445 20.5096C21.963 20.487 21.9801 20.4633 21.9959 20.4386C22.1519 20.2004 22.2461 19.9272 22.27 19.6435C22.294 19.3598 22.2469 19.0746 22.133 18.8136L19.5591 13.0387C19.4129 12.6978 19.1601 12.4135 18.8386 12.2285C18.5171 12.0435 18.1443 11.9677 17.7761 12.0126C16.176 12.223 14.7071 13.0088 13.6441 14.2232C12.5811 15.4377 11.9967 16.9976 12 18.6116C12 28.1997 19.8003 36 29.3884 36C31.0023 36.0031 32.5621 35.4186 33.7765 34.3556C34.9909 33.2926 35.7768 31.8239 35.9874 30.2239C36.0322 29.8574 35.9574 29.4863 35.7743 29.1657C35.5912 28.8451 35.3095 28.5922 34.9711 28.4446ZM29.3884 34.5305C20.6109 34.5305 13.4695 27.3891 13.4695 18.6116C13.4654 17.3551 13.9189 16.1402 14.7452 15.1937C15.5716 14.2472 16.7143 13.634 17.9598 13.4686H17.988C18.0373 13.4695 18.0853 13.4853 18.1255 13.5139C18.1657 13.5425 18.1963 13.5826 18.2133 13.629L20.7971 19.3978C20.8118 19.4298 20.8194 19.4647 20.8194 19.5C20.8194 19.5353 20.8118 19.5702 20.7971 19.6022L18.2121 22.6709C18.1928 22.6928 18.1752 22.7162 18.1594 22.7407C17.9977 22.9877 17.9024 23.2722 17.8829 23.5667C17.8634 23.8613 17.9202 24.1559 18.048 24.422C19.1342 26.6458 21.375 28.8695 23.6233 29.9557C23.891 30.0827 24.187 30.1382 24.4825 30.1168C24.7781 30.0953 25.063 29.9976 25.3095 29.8332C25.3327 29.8173 25.356 29.8002 25.3781 29.7818L28.4002 27.2103C28.4301 27.1942 28.463 27.1848 28.4968 27.1827C28.5306 27.1806 28.5645 27.1858 28.5961 27.198L34.3821 29.7904C34.4293 29.8105 34.4691 29.845 34.4956 29.8889C34.5222 29.9329 34.5343 29.9841 34.5302 30.0353C34.3657 31.2814 33.753 32.4249 32.8067 33.2522C31.8605 34.0795 30.6453 34.5339 29.3884 34.5305Z" fill="black"/>
<path d="M34.9711 28.4446L29.1864 25.8523C28.9243 25.74 28.6383 25.6948 28.3543 25.7209C28.0704 25.747 27.7974 25.8435 27.5602 26.0017C27.5361 26.0171 27.5132 26.0343 27.4916 26.0531L24.4682 28.6246C24.4369 28.6417 24.4019 28.6513 24.3662 28.6526C24.3305 28.6538 24.295 28.6468 24.2625 28.632C22.3192 27.694 20.306 25.6931 19.3644 23.7767C19.3487 23.7447 19.3405 23.7095 19.3405 23.6738C19.3405 23.6382 19.3487 23.603 19.3644 23.571L21.9445 20.5096C21.963 20.487 21.9801 20.4633 21.9959 20.4386C22.1519 20.2004 22.2461 19.9272 22.27 19.6435C22.294 19.3598 22.2469 19.0746 22.133 18.8136L19.5591 13.0387C19.4129 12.6978 19.1601 12.4135 18.8386 12.2285C18.5171 12.0435 18.1443 11.9677 17.7761 12.0126C16.176 12.223 14.7071 13.0088 13.6441 14.2232C12.5811 15.4377 11.9967 16.9976 12 18.6116C12 28.1997 19.8003 36 29.3884 36C31.0023 36.0031 32.5621 35.4186 33.7765 34.3556C34.9909 33.2926 35.7768 31.8239 35.9874 30.2239C36.0322 29.8574 35.9574 29.4863 35.7743 29.1657C35.5912 28.8451 35.3095 28.5922 34.9711 28.4446ZM29.3884 34.5305C20.6109 34.5305 13.4695 27.3891 13.4695 18.6116C13.4654 17.3551 13.9189 16.1402 14.7452 15.1937C15.5716 14.2472 16.7143 13.634 17.9598 13.4686H17.988C18.0373 13.4695 18.0853 13.4853 18.1255 13.5139C18.1657 13.5425 18.1963 13.5826 18.2133 13.629L20.7971 19.3978C20.8118 19.4298 20.8194 19.4647 20.8194 19.5C20.8194 19.5353 20.8118 19.5702 20.7971 19.6022L18.2121 22.6709C18.1928 22.6928 18.1752 22.7162 18.1594 22.7407C17.9977 22.9877 17.9024 23.2722 17.8829 23.5667C17.8634 23.8613 17.9202 24.1559 18.048 24.422C19.1342 26.6458 21.375 28.8695 23.6233 29.9557C23.891 30.0827 24.187 30.1382 24.4825 30.1168C24.7781 30.0953 25.063 29.9976 25.3095 29.8332C25.3327 29.8173 25.356 29.8002 25.3781 29.7818L28.4002 27.2103C28.4301 27.1942 28.463 27.1848 28.4968 27.1827C28.5306 27.1806 28.5645 27.1858 28.5961 27.198L34.3821 29.7904C34.4293 29.8105 34.4691 29.845 34.4956 29.8889C34.5222 29.9329 34.5343 29.9841 34.5302 30.0353C34.3657 31.2814 33.753 32.4249 32.8067 33.2522C31.8605 34.0795 30.6453 34.5339 29.3884 34.5305Z" fill="black" fill-opacity="0.2"/>
<path d="M34.9711 28.4446L29.1864 25.8523C28.9243 25.74 28.6383 25.6948 28.3543 25.7209C28.0704 25.747 27.7974 25.8435 27.5602 26.0017C27.5361 26.0171 27.5132 26.0343 27.4916 26.0531L24.4682 28.6246C24.4369 28.6417 24.4019 28.6513 24.3662 28.6526C24.3305 28.6538 24.295 28.6468 24.2625 28.632C22.3192 27.694 20.306 25.6931 19.3644 23.7767C19.3487 23.7447 19.3405 23.7095 19.3405 23.6738C19.3405 23.6382 19.3487 23.603 19.3644 23.571L21.9445 20.5096C21.963 20.487 21.9801 20.4633 21.9959 20.4386C22.1519 20.2004 22.2461 19.9272 22.27 19.6435C22.294 19.3598 22.2469 19.0746 22.133 18.8136L19.5591 13.0387C19.4129 12.6978 19.1601 12.4135 18.8386 12.2285C18.5171 12.0435 18.1443 11.9677 17.7761 12.0126C16.176 12.223 14.7071 13.0088 13.6441 14.2232C12.5811 15.4377 11.9967 16.9976 12 18.6116C12 28.1997 19.8003 36 29.3884 36C31.0023 36.0031 32.5621 35.4186 33.7765 34.3556C34.9909 33.2926 35.7768 31.8239 35.9874 30.2239C36.0322 29.8574 35.9574 29.4863 35.7743 29.1657C35.5912 28.8451 35.3095 28.5922 34.9711 28.4446ZM29.3884 34.5305C20.6109 34.5305 13.4695 27.3891 13.4695 18.6116C13.4654 17.3551 13.9189 16.1402 14.7452 15.1937C15.5716 14.2472 16.7143 13.634 17.9598 13.4686H17.988C18.0373 13.4695 18.0853 13.4853 18.1255 13.5139C18.1657 13.5425 18.1963 13.5826 18.2133 13.629L20.7971 19.3978C20.8118 19.4298 20.8194 19.4647 20.8194 19.5C20.8194 19.5353 20.8118 19.5702 20.7971 19.6022L18.2121 22.6709C18.1928 22.6928 18.1752 22.7162 18.1594 22.7407C17.9977 22.9877 17.9024 23.2722 17.8829 23.5667C17.8634 23.8613 17.9202 24.1559 18.048 24.422C19.1342 26.6458 21.375 28.8695 23.6233 29.9557C23.891 30.0827 24.187 30.1382 24.4825 30.1168C24.7781 30.0953 25.063 29.9976 25.3095 29.8332C25.3327 29.8173 25.356 29.8002 25.3781 29.7818L28.4002 27.2103C28.4301 27.1942 28.463 27.1848 28.4968 27.1827C28.5306 27.1806 28.5645 27.1858 28.5961 27.198L34.3821 29.7904C34.4293 29.8105 34.4691 29.845 34.4956 29.8889C34.5222 29.9329 34.5343 29.9841 34.5302 30.0353C34.3657 31.2814 33.753 32.4249 32.8067 33.2522C31.8605 34.0795 30.6453 34.5339 29.3884 34.5305Z" fill="black" fill-opacity="0.2"/>
</svg>
