<svg width="48" height="48" viewBox="0 0 48 48" fill="none" xmlns="http://www.w3.org/2000/svg">
<rect width="48" height="48" rx="24" fill="#E0DAD1"/>
<path d="M35.2684 12H12.7807C11.778 12 10.8164 12.3983 10.1073 13.1073C9.39832 13.8164 9 14.778 9 15.7807V32.2193C9 33.222 9.39832 34.1836 10.1073 34.8927C10.8164 35.6017 11.778 36 12.7807 36H35.2684C36.2711 36 37.2328 35.6017 37.9418 34.8927C38.6508 34.1836 39.0492 33.222 39.0492 32.2193V15.7807C39.0492 14.778 38.6508 13.8164 37.9418 13.1073C37.2328 12.3983 36.2711 12 35.2684 12ZM12.7807 13.5123H35.2684C35.8408 13.5106 36.3924 13.727 36.811 14.1175C37.2295 14.508 37.4837 15.0432 37.5217 15.6144C33.7864 17.6106 30.0359 19.5917 26.2854 21.5879C25.7781 21.9059 25.2412 22.1743 24.6824 22.3894C24.2437 22.476 23.7916 22.4682 23.3561 22.3665C22.9207 22.2648 22.5119 22.0716 22.1569 21.7996C20.0095 20.6654 17.862 19.5161 15.7297 18.3819C14.0057 17.4745 12.2514 16.552 10.5274 15.6295C10.5625 15.0559 10.8152 14.5174 11.234 14.1239C11.6528 13.7304 12.2061 13.5116 12.7807 13.5123ZM37.5369 32.2193C37.5369 32.8209 37.2979 33.3979 36.8725 33.8233C36.447 34.2487 35.8701 34.4877 35.2684 34.4877H12.7807C12.1791 34.4877 11.6021 34.2487 11.1767 33.8233C10.7513 33.3979 10.5123 32.8209 10.5123 32.2193V17.3459C14.0813 19.2212 17.6352 21.1267 21.2042 23.017C21.8418 23.408 22.5283 23.713 23.2457 23.9244C24.2959 24.0951 25.3721 23.8745 26.2703 23.3043C28.4631 22.155 30.6408 20.9905 32.8337 19.8412C34.4064 18.9943 35.9641 18.1777 37.5369 17.3459V32.2193Z" fill="black"/>
<path d="M35.2684 12H12.7807C11.778 12 10.8164 12.3983 10.1073 13.1073C9.39832 13.8164 9 14.778 9 15.7807V32.2193C9 33.222 9.39832 34.1836 10.1073 34.8927C10.8164 35.6017 11.778 36 12.7807 36H35.2684C36.2711 36 37.2328 35.6017 37.9418 34.8927C38.6508 34.1836 39.0492 33.222 39.0492 32.2193V15.7807C39.0492 14.778 38.6508 13.8164 37.9418 13.1073C37.2328 12.3983 36.2711 12 35.2684 12ZM12.7807 13.5123H35.2684C35.8408 13.5106 36.3924 13.727 36.811 14.1175C37.2295 14.508 37.4837 15.0432 37.5217 15.6144C33.7864 17.6106 30.0359 19.5917 26.2854 21.5879C25.7781 21.9059 25.2412 22.1743 24.6824 22.3894C24.2437 22.476 23.7916 22.4682 23.3561 22.3665C22.9207 22.2648 22.5119 22.0716 22.1569 21.7996C20.0095 20.6654 17.862 19.5161 15.7297 18.3819C14.0057 17.4745 12.2514 16.552 10.5274 15.6295C10.5625 15.0559 10.8152 14.5174 11.234 14.1239C11.6528 13.7304 12.2061 13.5116 12.7807 13.5123ZM37.5369 32.2193C37.5369 32.8209 37.2979 33.3979 36.8725 33.8233C36.447 34.2487 35.8701 34.4877 35.2684 34.4877H12.7807C12.1791 34.4877 11.6021 34.2487 11.1767 33.8233C10.7513 33.3979 10.5123 32.8209 10.5123 32.2193V17.3459C14.0813 19.2212 17.6352 21.1267 21.2042 23.017C21.8418 23.408 22.5283 23.713 23.2457 23.9244C24.2959 24.0951 25.3721 23.8745 26.2703 23.3043C28.4631 22.155 30.6408 20.9905 32.8337 19.8412C34.4064 18.9943 35.9641 18.1777 37.5369 17.3459V32.2193Z" fill="black" fill-opacity="0.2"/>
<path d="M35.2684 12H12.7807C11.778 12 10.8164 12.3983 10.1073 13.1073C9.39832 13.8164 9 14.778 9 15.7807V32.2193C9 33.222 9.39832 34.1836 10.1073 34.8927C10.8164 35.6017 11.778 36 12.7807 36H35.2684C36.2711 36 37.2328 35.6017 37.9418 34.8927C38.6508 34.1836 39.0492 33.222 39.0492 32.2193V15.7807C39.0492 14.778 38.6508 13.8164 37.9418 13.1073C37.2328 12.3983 36.2711 12 35.2684 12ZM12.7807 13.5123H35.2684C35.8408 13.5106 36.3924 13.727 36.811 14.1175C37.2295 14.508 37.4837 15.0432 37.5217 15.6144C33.7864 17.6106 30.0359 19.5917 26.2854 21.5879C25.7781 21.9059 25.2412 22.1743 24.6824 22.3894C24.2437 22.476 23.7916 22.4682 23.3561 22.3665C22.9207 22.2648 22.5119 22.0716 22.1569 21.7996C20.0095 20.6654 17.862 19.5161 15.7297 18.3819C14.0057 17.4745 12.2514 16.552 10.5274 15.6295C10.5625 15.0559 10.8152 14.5174 11.234 14.1239C11.6528 13.7304 12.2061 13.5116 12.7807 13.5123ZM37.5369 32.2193C37.5369 32.8209 37.2979 33.3979 36.8725 33.8233C36.447 34.2487 35.8701 34.4877 35.2684 34.4877H12.7807C12.1791 34.4877 11.6021 34.2487 11.1767 33.8233C10.7513 33.3979 10.5123 32.8209 10.5123 32.2193V17.3459C14.0813 19.2212 17.6352 21.1267 21.2042 23.017C21.8418 23.408 22.5283 23.713 23.2457 23.9244C24.2959 24.0951 25.3721 23.8745 26.2703 23.3043C28.4631 22.155 30.6408 20.9905 32.8337 19.8412C34.4064 18.9943 35.9641 18.1777 37.5369 17.3459V32.2193Z" fill="black" fill-opacity="0.2"/>
</svg>
